<?xml version="1.0" encoding="iso-8859-1"?>
<!-- Generator: Adobe Illustrator 19.0.0, SVG Export Plug-In . SVG Version: 6.00 Build 0)  -->
<svg version="1.1" id="Layer_1" xmlns="http://www.w3.org/2000/svg" xmlns:xlink="http://www.w3.org/1999/xlink" x="0px" y="0px"
	viewBox="0 0 512 512" style="enable-background:new 0 0 512 512;" xml:space="preserve">
	<path style="fill:#F9D84E;" d="M85.333,85.333l79.084-28.244c4.869-1.739,7.147-7.407,4.706-11.966
	C154.523,17.845,125.546-0.58,92.305,0.014C47.8,0.81,10.992,36.274,8.655,80.724c-2.589,49.221,36.556,89.942,85.212,89.942
	c32.575,0,60.868-18.262,75.244-45.1c2.446-4.567,0.181-10.247-4.698-11.99L85.333,85.333z" />
	<path style="fill:#FFC20D;" d="M110.933,153.6c-48.656,0-87.801-40.721-85.212-89.942c0.914-17.39,7.122-33.391,16.986-46.493
	C23.157,31.88,10.02,54.762,8.655,80.724c-2.589,49.221,36.556,89.942,85.212,89.942c27.9,0,52.651-13.404,68.214-34.111
	C147.831,147.256,130.128,153.6,110.933,153.6z" />
	<circle style="fill:#EB9617;" cx="85.333" cy="42.667" r="8.533" />
	<path style="fill:#45CAE0;" d="M212.427,162.14c-37.515,0.486-67.36,31.759-67.36,69.278v92.849c0,4.908,4.082,8.515,8.845,8.533
	c2.74,0.011,5.482,0,8.222,0l51.2-25.6l51.2,25.6c2.74,0,5.482,0.011,8.222,0c4.763-0.018,8.845-3.626,8.845-8.533V230.4
	C281.6,192.396,250.545,161.645,212.427,162.14z" />
	<path style="fill:#0AADBF;" d="M162.133,324.267v-92.849c0-34.94,25.887-64.449,59.743-68.736c-3.092-0.386-6.243-0.585-9.45-0.543
	c-37.515,0.487-67.36,31.76-67.36,69.279v92.849c0,4.908,4.082,8.515,8.845,8.533c2.74,0.011,5.482,0,8.222,0l3.485-1.742
	C163.522,329.534,162.133,327.124,162.133,324.267z" />
	<g>
		<circle style="fill:#E9E9EA;" cx="187.733" cy="230.4" r="17.067" />
		<circle style="fill:#E9E9EA;" cx="238.933" cy="230.4" r="17.067" />
	</g>
	<g>
		<circle style="fill:#146F80;" cx="187.733" cy="230.4" r="8.533" />
		<circle style="fill:#146F80;" cx="238.933" cy="230.4" r="8.533" />
	</g>
	<path style="fill:#45CAE0;" d="M434.293,341.34c-37.515,0.486-67.36,31.759-67.36,69.278v92.849c0,4.713,3.821,8.533,8.533,8.533
	H384l51.2-25.6l51.2,25.6h8.533c4.713,0,8.533-3.821,8.533-8.533V409.6C503.467,371.596,472.412,340.845,434.293,341.34z" />
	<path style="fill:#0AADBF;" d="M384,503.467v-92.849c0-34.94,25.887-64.449,59.743-68.736c-3.092-0.386-6.243-0.585-9.45-0.543
	c-37.515,0.487-67.36,31.76-67.36,69.279v92.849c0,4.713,3.821,8.533,8.533,8.533H384l3.423-1.711
	C385.348,508.732,384,506.26,384,503.467z" />
	<g>
		<circle style="fill:#E9E9EA;" cx="409.6" cy="409.6" r="17.067" />
		<circle style="fill:#E9E9EA;" cx="460.8" cy="409.6" r="17.067" />
	</g>
	<g>
		<circle style="fill:#146F80;" cx="409.6" cy="409.6" r="8.533" />
		<circle style="fill:#146F80;" cx="460.8" cy="409.6" r="8.533" />
	</g>
	<path style="fill:#FD5E95;" d="M434.293,162.14c-37.515,0.486-67.36,31.759-67.36,69.278v92.849c0,4.713,3.821,8.533,8.533,8.533
	H384l51.2-25.6l51.2,25.6h8.533c4.713,0,8.533-3.821,8.533-8.533V230.4C503.467,192.396,472.412,161.645,434.293,162.14z" />
	<path style="fill:#D14D7B;" d="M384,324.267v-92.849c0-34.94,25.887-64.449,59.743-68.736c-3.092-0.386-6.243-0.585-9.45-0.543
	c-37.515,0.487-67.36,31.76-67.36,69.279v92.849c0,4.713,3.821,8.533,8.533,8.533H384l3.423-1.711
	C385.348,329.532,384,327.06,384,324.267z" />
	<g>
		<circle style="fill:#E9E9EA;" cx="409.6" cy="230.4" r="17.067" />
		<circle style="fill:#E9E9EA;" cx="460.8" cy="230.4" r="17.067" />
	</g>
	<g>
		<circle style="fill:#6C3D75;" cx="409.6" cy="230.4" r="8.533" />
		<circle style="fill:#6C3D75;" cx="460.8" cy="230.4" r="8.533" />
	</g>
	<path style="fill:#FD5E95;" d="M212.427,341.34c-37.515,0.486-67.36,31.759-67.36,69.278v92.849c0,4.713,3.821,8.533,8.533,8.533
	h8.533l51.2-25.6l51.2,25.6h8.533c4.713,0,8.533-3.821,8.533-8.533V409.6C281.6,371.596,250.545,340.845,212.427,341.34z" />
	<path style="fill:#D14D7B;" d="M162.133,503.467v-92.849c0-34.94,25.887-64.449,59.743-68.736c-3.092-0.386-6.243-0.585-9.45-0.543
	c-37.515,0.487-67.36,31.76-67.36,69.279v92.849c0,4.713,3.821,8.533,8.533,8.533h8.533l3.423-1.711
	C163.482,508.732,162.133,506.26,162.133,503.467z" />
	<g>
		<circle style="fill:#E9E9EA;" cx="187.733" cy="409.6" r="17.067" />
		<circle style="fill:#E9E9EA;" cx="238.933" cy="409.6" r="17.067" />
	</g>
	<g>
		<circle style="fill:#6C3D75;" cx="187.733" cy="409.6" r="8.533" />
		<circle style="fill:#6C3D75;" cx="238.933" cy="409.6" r="8.533" />
	</g>
	<g>
		<path style="fill:#64666D;" d="M264.533,93.867H256c-4.713,0-8.533-3.821-8.533-8.533S251.287,76.8,256,76.8h8.533
		c4.713,0,8.533,3.821,8.533,8.533S269.246,93.867,264.533,93.867z" />
		<path style="fill:#64666D;" d="M298.667,93.867h-8.533c-4.713,0-8.533-3.821-8.533-8.533s3.821-8.533,8.533-8.533h8.533
		c4.713,0,8.533,3.821,8.533,8.533S303.379,93.867,298.667,93.867z" />
		<path style="fill:#64666D;" d="M196.267,93.867h-8.533c-4.713,0-8.533-3.821-8.533-8.533s3.821-8.533,8.533-8.533h8.533
		c4.713,0,8.533,3.821,8.533,8.533S200.979,93.867,196.267,93.867z" />
		<path style="fill:#64666D;" d="M230.4,93.867h-8.533c-4.713,0-8.533-3.821-8.533-8.533s3.821-8.533,8.533-8.533h8.533
		c4.713,0,8.533,3.821,8.533,8.533S235.113,93.867,230.4,93.867z" />
		<path style="fill:#64666D;" d="M324.267,102.4c-4.713,0-8.533-3.821-8.533-8.533v-8.533c0-4.713,3.821-8.533,8.533-8.533
		c4.713,0,8.533,3.821,8.533,8.533v8.533C332.8,98.579,328.979,102.4,324.267,102.4z" />
		<path style="fill:#64666D;" d="M324.267,136.533c-4.713,0-8.533-3.821-8.533-8.533v-8.533c0-4.713,3.821-8.533,8.533-8.533
		c4.713,0,8.533,3.821,8.533,8.533V128C332.8,132.713,328.979,136.533,324.267,136.533z" />
		<path style="fill:#64666D;" d="M324.267,170.667c-4.713,0-8.533-3.821-8.533-8.533V153.6c0-4.713,3.821-8.533,8.533-8.533
		c4.713,0,8.533,3.821,8.533,8.533v8.533C332.8,166.846,328.979,170.667,324.267,170.667z" />
		<path style="fill:#64666D;" d="M324.267,204.8c-4.713,0-8.533-3.821-8.533-8.533v-8.533c0-4.713,3.821-8.533,8.533-8.533
		c4.713,0,8.533,3.821,8.533,8.533v8.533C332.8,200.979,328.979,204.8,324.267,204.8z" />
		<path style="fill:#64666D;" d="M324.267,238.933c-4.713,0-8.533-3.821-8.533-8.533v-8.533c0-4.713,3.821-8.533,8.533-8.533
		c4.713,0,8.533,3.821,8.533,8.533v8.533C332.8,235.113,328.979,238.933,324.267,238.933z" />
		<path style="fill:#64666D;" d="M324.267,273.067c-4.713,0-8.533-3.821-8.533-8.533V256c0-4.713,3.821-8.533,8.533-8.533
		c4.713,0,8.533,3.821,8.533,8.533v8.533C332.8,269.246,328.979,273.067,324.267,273.067z" />
		<path style="fill:#64666D;" d="M324.267,307.2c-4.713,0-8.533-3.821-8.533-8.533v-8.533c0-4.713,3.821-8.533,8.533-8.533
		c4.713,0,8.533,3.821,8.533,8.533v8.533C332.8,303.379,328.979,307.2,324.267,307.2z" />
		<path style="fill:#64666D;" d="M324.267,341.333c-4.713,0-8.533-3.821-8.533-8.533v-8.533c0-4.713,3.821-8.533,8.533-8.533
		c4.713,0,8.533,3.821,8.533,8.533v8.533C332.8,337.513,328.979,341.333,324.267,341.333z" />
		<path style="fill:#64666D;" d="M324.267,375.467c-4.713,0-8.533-3.821-8.533-8.533V358.4c0-4.713,3.821-8.533,8.533-8.533
		c4.713,0,8.533,3.821,8.533,8.533v8.533C332.8,371.646,328.979,375.467,324.267,375.467z" />
		<path style="fill:#64666D;" d="M324.267,409.6c-4.713,0-8.533-3.821-8.533-8.533v-8.533c0-4.713,3.821-8.533,8.533-8.533
		c4.713,0,8.533,3.821,8.533,8.533v8.533C332.8,405.779,328.979,409.6,324.267,409.6z" />
		<path style="fill:#64666D;" d="M324.267,443.733c-4.713,0-8.533-3.821-8.533-8.533v-8.533c0-4.713,3.821-8.533,8.533-8.533
		c4.713,0,8.533,3.821,8.533,8.533v8.533C332.8,439.913,328.979,443.733,324.267,443.733z" />
		<path style="fill:#64666D;" d="M324.267,477.867c-4.713,0-8.533-3.821-8.533-8.533V460.8c0-4.713,3.821-8.533,8.533-8.533
		c4.713,0,8.533,3.821,8.533,8.533v8.533C332.8,474.046,328.979,477.867,324.267,477.867z" />
		<path style="fill:#64666D;" d="M324.267,512c-4.713,0-8.533-3.821-8.533-8.533v-8.533c0-4.713,3.821-8.533,8.533-8.533
		c4.713,0,8.533,3.821,8.533,8.533v8.533C332.8,508.179,328.979,512,324.267,512z" />
	</g>
	<g></g>
	<g></g>
	<g></g>
	<g></g>
	<g></g>
	<g></g>
	<g></g>
	<g></g>
	<g></g>
	<g></g>
	<g></g>
	<g></g>
	<g></g>
	<g></g>
	<g></g>
</svg>