<?xml version="1.0" standalone="no"?>
<!DOCTYPE svg PUBLIC "-//W3C//DTD SVG 20010904//EN" "http://www.w3.org/TR/2001/REC-SVG-20010904/DTD/svg10.dtd">
<svg version="1.0" xmlns="http://www.w3.org/2000/svg"
    width="2400.000000pt" height="2400.000000pt" viewBox="0 0 2400.000000 2400.000000"
    preserveAspectRatio="xMidYMid meet">
    <g transform="translate(0.000000,2400.000000) scale(0.100000,-0.100000)"
        fill="#cf0245" stroke="none">
        <path d="M3846 23989 c-802 -62 -1626 -332 -2236 -734 -869 -572 -1397 -1433
-1554 -2535 -54 -375 -51 146 -51 -8650 0 -6695 2 -8217 13 -8315 129 -1175
590 -2178 1293 -2811 635 -573 1418 -874 2429 -934 106 -6 3744 -10 10213 -10
l10047 0 -3 10088 c-3 9458 -4 10095 -20 10217 -132 1004 -448 1791 -972 2422
-639 769 -1556 1192 -2740 1263 -210 12 -16256 11 -16419 -1z m8677 -2771 c3
-13 67 -342 142 -733 75 -390 138 -711 138 -712 1 -1 79 37 172 84 632 320
1180 498 1785 580 206 28 675 25 857 -5 455 -75 781 -228 1043 -491 179 -179
293 -364 371 -601 166 -506 115 -1099 -154 -1785 -64 -164 -242 -519 -345
-691 -181 -301 -421 -633 -625 -867 l-60 -68 19 -42 c10 -23 55 -79 99 -123
65 -66 97 -89 166 -123 138 -66 217 -83 419 -88 149 -4 194 -2 305 17 445 75
911 298 1355 649 118 93 424 397 514 511 219 275 380 592 437 855 l13 60 8
-60 c5 -33 7 -163 5 -290 -5 -257 -27 -414 -91 -660 -468 -1777 -2461 -3665
-4485 -4250 -378 -109 -705 -162 -1056 -172 -601 -16 -1071 115 -1440 402
-235 182 -418 455 -509 757 -23 76 -111 510 -246 1215 -116 604 -213 1107
-216 1118 -3 14 24 55 92 140 290 364 538 814 667 1210 88 272 124 492 114
710 -16 367 -179 601 -454 655 -88 17 -288 8 -385 -18 -121 -33 -274 -97 -395
-165 -104 -60 -112 -63 -117 -43 -3 12 -82 422 -176 911 -94 490 -173 897
-175 906 -4 11 124 87 527 309 293 162 787 435 1098 607 311 172 568 313 571
313 4 0 9 -10 12 -22z m-2943 -1604 c0 -3 88 -462 196 -1021 l195 -1016 -30
-36 c-284 -334 -465 -602 -631 -931 -373 -745 -420 -1401 -120 -1700 106 -107
229 -154 405 -153 223 0 474 89 754 264 52 33 96 57 99 54 4 -4 382 -1948 382
-1965 0 -3 -75 -47 -168 -97 -92 -51 -1067 -590 -2167 -1197 -1100 -607 -2001
-1103 -2002 -1102 -5 5 -1253 6501 -1250 6509 1 4 308 177 682 383 374 207
1166 644 1760 972 594 328 1260 696 1480 818 220 122 403 222 408 223 4 1 7
-1 7 -5z m1839 -11314 c93 -19 230 -76 280 -117 l23 -19 -41 -185 c-23 -101
-45 -194 -48 -206 -5 -21 -9 -19 -76 32 -130 99 -253 145 -393 145 -200 0
-313 -115 -244 -249 29 -58 95 -93 308 -165 329 -111 436 -182 507 -338 60
-131 72 -338 27 -463 -63 -172 -221 -317 -418 -385 -143 -50 -363 -48 -569 5
-101 25 -345 135 -345 154 0 13 81 405 85 409 1 2 31 -17 66 -41 126 -88 305
-164 442 -187 118 -21 244 13 300 80 51 60 56 141 16 222 -35 68 -78 93 -294
164 -238 79 -342 127 -416 193 -94 83 -134 181 -145 351 -12 180 31 295 161
426 155 156 299 206 570 196 61 -2 152 -12 204 -22z m-5759 4 c387 -73 667
-334 762 -711 19 -75 23 -113 22 -263 -1 -156 -4 -186 -27 -275 -98 -365 -356
-623 -719 -715 -372 -95 -756 3 -1005 258 -264 271 -341 706 -193 1089 122
317 387 543 720 614 111 23 327 25 440 3z m2390 -8 c139 -30 299 -93 327 -128
7 -9 -5 -65 -45 -200 l-55 -187 -44 30 c-63 44 -158 85 -255 111 -67 18 -109
22 -218 22 -149 0 -187 -8 -297 -60 -95 -45 -180 -130 -228 -227 -57 -117 -70
-182 -70 -347 0 -162 17 -239 78 -354 66 -124 212 -230 372 -271 131 -33 380
-28 472 10 l33 14 0 280 0 281 195 0 195 0 0 -388 0 -389 -47 -26 c-183 -99
-408 -148 -680 -148 -483 0 -811 175 -969 515 -97 212 -120 534 -54 790 42
165 156 353 276 452 146 122 341 205 549 233 101 14 375 6 465 -13z m9170 8
c387 -73 667 -334 762 -711 19 -75 23 -114 22 -263 0 -157 -3 -185 -27 -275
-98 -366 -356 -623 -719 -715 -253 -65 -518 -40 -743 70 -224 109 -392 298
-473 530 -41 117 -56 214 -55 355 4 503 320 904 793 1005 111 24 326 26 440 4z
m2288 1 c449 -85 752 -415 791 -862 36 -407 -128 -766 -442 -971 -340 -222
-831 -223 -1158 -1 -223 150 -365 378 -409 652 -19 117 -8 318 24 442 27 105
93 253 147 332 49 70 166 190 234 238 114 81 256 142 395 170 92 18 320 18
418 0z m-6155 -28 c99 -26 287 -108 287 -125 0 -8 -82 -246 -117 -339 l-15
-42 -58 40 c-119 81 -248 119 -402 119 -205 0 -352 -71 -451 -217 -73 -106
-98 -191 -104 -349 -6 -157 10 -247 63 -354 92 -184 306 -300 551 -300 161 0
275 32 385 107 43 28 80 49 82 44 3 -4 34 -83 70 -175 l64 -167 -41 -31 c-158
-115 -355 -168 -623 -169 -614 -1 -974 354 -974 961 0 480 217 832 597 970
137 49 215 60 413 56 150 -3 189 -7 273 -29z m-10423 -367 l0 -380 380 0 380
0 0 380 0 380 200 0 200 0 0 -970 0 -970 -200 0 -200 0 0 405 0 405 -380 0
-380 0 0 -405 0 -405 -200 0 -200 0 0 970 0 970 200 0 200 0 0 -380z m7150
205 l0 -175 -390 0 -390 0 2 -202 3 -203 353 -3 352 -2 0 -175 0 -175 -352 -2
-353 -3 -3 -237 -2 -238 425 0 425 0 0 -175 0 -175 -625 0 -625 0 0 970 0 970
590 0 590 0 0 -175z m4410 -205 l0 -380 380 0 380 0 0 380 0 380 200 0 200 0
0 -970 0 -970 -200 0 -200 0 0 405 0 405 -380 0 -380 0 0 -405 0 -405 -200 0
-200 0 0 970 0 970 200 0 200 0 0 -380z m6570 -410 l0 -790 420 0 420 0 0
-180 0 -180 -625 0 -625 0 0 970 0 970 205 0 205 0 0 -790z m-14550 -2434
c348 -97 590 -339 681 -682 27 -101 36 -318 20 -435 -42 -292 -203 -548 -441
-701 -244 -157 -583 -206 -871 -127 -177 48 -379 177 -485 310 -167 209 -234
440 -212 730 34 466 361 838 813 925 48 9 123 12 235 10 140 -3 179 -8 260
-30z m8780 19 c138 -21 232 -49 345 -105 330 -160 480 -463 454 -911 -17 -277
-110 -507 -273 -678 -167 -173 -383 -267 -678 -293 -131 -12 -391 -2 -635 23
l-113 12 0 967 0 968 83 7 c203 18 286 22 497 23 154 1 255 -3 320 -13z
m-10850 -20 c234 -55 377 -192 426 -411 22 -100 15 -271 -14 -364 -39 -120
-137 -253 -234 -317 -21 -14 -38 -28 -38 -32 0 -3 118 -159 261 -346 144 -187
269 -352 280 -366 l18 -26 -207 -42 c-114 -22 -212 -41 -218 -41 -7 0 -137
171 -290 380 l-278 380 -58 0 -58 0 0 -375 0 -375 -200 0 -200 0 0 965 c0 764
3 967 13 970 28 10 366 23 537 21 134 -2 206 -8 260 -21z m9015 -4 c118 -31
198 -74 269 -145 96 -95 140 -205 152 -376 16 -220 -89 -451 -257 -564 l-48
-32 279 -365 c154 -200 279 -367 280 -370 0 -12 -432 -93 -438 -82 -4 6 -128
177 -277 381 l-270 371 -62 0 -63 1 0 -375 0 -375 -200 0 -200 0 0 965 c0 764
3 967 13 970 31 10 371 23 547 20 159 -3 210 -7 275 -24z m-4535 -181 l0 -190
-275 0 -275 0 0 -780 0 -780 -200 0 -200 0 0 775 0 775 -275 0 -275 0 0 195 0
195 750 0 750 0 0 -190z m1760 0 l0 -190 -270 0 -270 0 0 -780 0 -780 -205 0
-205 0 0 775 0 775 -272 2 -273 3 -3 180 c-1 98 0 185 2 192 4 10 153 13 751
13 l745 0 0 -190z m1470 15 l0 -175 -387 -2 -388 -3 0 -200 0 -200 353 -3 352
-2 0 -175 0 -175 -352 -2 -353 -3 -3 -237 -2 -238 425 0 425 0 0 -175 0 -175
-625 0 -625 0 0 970 0 970 590 0 590 0 0 -175z m5516 -785 c206 -525 376 -963
380 -973 5 -16 -8 -17 -211 -15 l-216 3 -98 240 -97 240 -340 3 -339 2 -99
-240 -100 -240 -209 0 c-163 0 -208 3 -204 13 23 57 801 1896 809 1910 8 16
25 17 180 15 l170 -3 374 -955z m2689 938 c3 -13 106 -449 228 -969 l223 -947
-59 -6 c-113 -12 -384 -7 -389 7 -3 6 -63 259 -134 560 -88 376 -131 543 -137
530 -4 -10 -119 -261 -255 -558 l-248 -540 -145 0 -144 0 -247 555 c-136 305
-249 548 -252 540 -6 -17 -236 -1085 -236 -1096 0 -7 -379 2 -386 9 -2 2 92
432 209 955 l212 952 166 0 166 0 269 -640 c147 -352 271 -636 275 -632 6 5
381 836 565 1250 l23 52 145 0 c143 0 146 0 151 -22z" />
        <path d="M5282 7920 c-105 -28 -167 -64 -252 -150 -53 -53 -85 -95 -108 -143
-125 -261 -77 -606 109 -787 218 -211 608 -211 819 0 120 120 177 294 167 510
-9 196 -67 332 -190 448 -131 123 -352 172 -545 122z" />
        <path d="M16842 7920 c-98 -26 -163 -63 -243 -137 -245 -230 -249 -709 -8
-943 217 -210 605 -211 818 -2 68 68 111 140 143 242 20 66 23 95 22 230 0
141 -3 163 -27 236 -50 151 -146 267 -272 330 -130 64 -293 80 -433 44z" />
        <path d="M19154 7925 c-208 -45 -377 -217 -428 -435 -9 -38 -16 -112 -16 -181
0 -206 50 -341 175 -464 175 -175 443 -214 683 -100 195 93 303 289 303 556 0
174 -28 279 -109 402 -120 184 -368 274 -608 222z" />
        <path d="M6073 4705 c-205 -45 -370 -208 -429 -425 -24 -90 -25 -291 -1 -380
85 -319 374 -494 702 -425 292 61 458 307 442 655 -9 197 -68 336 -191 447
-131 120 -333 169 -523 128z" />
        <path d="M14935 4734 c-33 -2 -79 -6 -102 -10 l-43 -5 0 -623 0 -624 68 -13
c38 -8 126 -14 207 -13 119 0 149 3 200 22 184 68 329 240 385 458 28 104 30
272 6 364 -55 206 -218 369 -426 425 -59 16 -197 25 -295 19z" />
        <path d="M4093 4733 l-63 -4 0 -259 0 -258 104 -7 c175 -12 259 23 311 128 49
101 43 225 -15 306 -56 77 -159 106 -337 94z" />
        <path d="M13083 4733 l-63 -4 0 -259 0 -258 105 -7 c115 -8 161 -3 215 25 82
42 122 113 128 226 5 98 -7 142 -57 197 -64 71 -149 92 -328 80z" />
        <path d="M16975 4248 c-64 -167 -119 -309 -122 -315 -4 -10 46 -13 232 -13
205 0 236 2 231 15 -3 8 -53 148 -111 312 -59 164 -108 299 -109 301 -2 1 -56
-134 -121 -300z" />
    </g>
</svg>