<svg version="1.0" xmlns="http://www.w3.org/2000/svg"
  width="512.000000pt" height="512.000000pt" viewBox="0 0 512.000000 512.000000"
  preserveAspectRatio="xMidYMid meet" filter="invert(1)" >
  <g transform="translate(0.000000,512.000000) scale(0.100000,-0.100000)"
    fill="#000000" stroke="none">
    <path d="M2433 5035 c-168 -47 -281 -142 -352 -295 -94 -203 -41 -450 129
-603 286 -257 746 -118 845 254 22 79 19 214 -5 291 -34 111 -126 229 -225
290 -109 67 -280 95 -392 63z" />
    <path d="M1081 4203 l-180 -188 527 -527 527 -528 -803 0 -802 0 0 -240 0
-240 790 0 c459 0 790 -4 790 -9 0 -5 -272 -279 -605 -609 l-605 -600 0 -591
0 -591 1835 0 1835 0 0 589 0 589 -610 604 -610 603 793 5 792 5 3 243 2 242
-801 0 -801 0 510 518 c281 284 512 520 514 523 1 4 -79 87 -180 184 l-184
178 -636 -636 -637 -637 -241 242 c-132 134 -420 426 -641 651 l-401 407 -181
-187z m2247 -2628 l542 -540 0 -217 0 -218 -1315 0 -1315 0 0 222 0 223 652
652 653 653 120 -117 c66 -65 364 -361 663 -658z" />
  </g>
</svg>