<?xml version="1.0" encoding="UTF-8"?>
<svg id="Layer_2" xmlns="http://www.w3.org/2000/svg" viewBox="0 0 82.86 40.16">
    <defs>
        <style>.cls-1{fill:blue;}</style>
    </defs>
    <g id="Layer_5">
        <g>
            <path class="cls-1"
                  d="M19.34,3.5c1.05-.57,1.63-1.62,1.71-2.8V0h-4.36V18.66h4.36V4.09h0s-.53,0-.53,0c-.57,0-1.13,.05-1.69,.16-.28,.05-.55,.1-.73,.13v-.58c.38-.05,.9-.1,1.25-.3Z"/>
            <path class="cls-1"
                  d="M40.64,4.09h0s-.01,0-.01,0h-.53c-.57,0-1.13,.05-1.69,.16-.28,.05-.54,.1-.72,.13,0,0,0,0-.01,0v-.58c.38-.05,.9-.1,1.25-.3,1.06-.57,1.63-1.62,1.71-2.8V0h-4.36V4.09h-2.14v3.31h2.14v11.26h4.37V7.4h2.1v-3.31h-2.1Z"/>
            <polygon class="cls-1" points="10.13 25.1 7.35 34.18 7.29 34.18 4.51 25.1 0 25.1 5.22 39.66 9.39 39.66 14.64 25.1 10.13 25.1"/>
            <polygon class="cls-1" points="9.39 18.66 14.64 4.09 10.13 4.09 7.35 13.17 7.29 13.17 4.51 4.09 0 4.09 5.22 18.66 9.39 18.66"/>
            <path class="cls-1"
                  d="M70.16,29.06c0-.66,.66-.97,1.23-.97,.76,0,1.34,.29,1.36,1.1h4.28c-.29-3.1-2.68-4.59-5.59-4.59s-5.64,1.76-5.64,4.8c0,2.05,1.73,3.17,3.46,3.8,.63,.24,1.26,.45,1.89,.66,.79,.31,1.97,.63,1.97,1.68,0,.76-.87,1.13-1.52,1.13-.87,0-1.52-.45-1.65-1.34h-4.33c.34,3.2,2.89,4.83,5.93,4.83s5.93-1.68,5.93-4.96c0-5.14-7.32-3.86-7.32-6.14Z"/>
            <path class="cls-1"
                  d="M44.57,4.09V12.8c0,1.81,.13,3.02,1.31,4.49,1.05,1.29,2.68,1.84,4.28,1.84s3.02-.45,3.78-2.02h.05v1.55h4.12V4.09h-4.36V12.1c0,1.68-.68,2.96-2.49,2.96-1.97,0-2.33-1.26-2.33-2.91V4.09h-4.36Z"/>
            <path class="cls-1"
                  d="M75.8,18.66V4.09h-4.36v1.55h-.05c-.87-1.44-2.65-2.05-4.25-2.05-4.38,0-7.32,3.52-7.32,7.77s2.83,7.79,7.32,7.79c1.57,0,3.46-.58,4.25-2.07h.05v1.57h4.36Zm-8-3.57c-2.05,0-3.62-1.65-3.62-3.67s1.47-3.75,3.59-3.75,3.67,1.57,3.67,3.7-1.52,3.73-3.65,3.73Z"/>
            <rect class="cls-1" x="49.56" y="20.97" width="4.36" height="18.7"/>
            <path class="cls-1"
                  d="M42.28,33.1c0,1.68-.68,2.96-2.49,2.96-1.97,0-2.34-1.26-2.34-2.91v-8.05h-4.36v8.71c0,1.81,.13,3.02,1.31,4.49,1.05,1.29,2.68,1.84,4.28,1.84s3.02-.45,3.78-2.02h.05v1.55h4.12v-14.56h-4.36v8Z"/>
            <polygon class="cls-1" points="24.14 4.07 24.14 18.66 28.49 18.66 28.51 7.41 32.04 7.41 32.04 4.07 24.14 4.07"/>
            <rect class="cls-1" x="78.5" y="0" width="4.36" height="18.66"/>
            <path class="cls-1"
                  d="M26.17,26.65h-.05c-.87-1.44-2.65-2.05-4.25-2.05-4.38,0-7.32,3.52-7.32,7.77s2.83,7.79,7.32,7.79c1.57,0,3.46-.58,4.25-2.07h.05v1.57h4.36v-14.56h-4.36v1.55Zm-3.65,9.44c-2.05,0-3.62-1.65-3.62-3.67s1.47-3.75,3.59-3.75,3.67,1.57,3.67,3.7-1.52,3.73-3.65,3.73Z"/>
            <path class="cls-1"
                  d="M62.53,25.07h0s-.01,0-.01,0h-.53c-.57,0-1.13,.05-1.69,.16-.28,.05-.54,.1-.72,.13,0,0,0,0-.01,0v-.58c.38-.05,.9-.1,1.25-.3,1.06-.57,1.63-1.62,1.71-2.8v-.69h-4.36v4.09h-2.14v3.31h2.14v11.26h4.37v-11.26h2.1v-3.31h-2.1Z"/>
        </g>
    </g>
</svg>